<?xml version="1.0" encoding="utf-8"?>
<svg viewBox="0 0 639 451" xmlns="http://www.w3.org/2000/svg">
  <path d="M 0 0 L 639 0 L 639 451 L 0 451 Z M 288.819 373.41 C 246.306 338.186 219.215 284.993 219.215 225.5 C 219.215 166.006 246.306 112.813 288.819 77.589 C 270.004 69.8 249.389 65.5 227.785 65.5 C 139.535 65.5 67.785 137.25 67.785 225.5 C 67.785 313.75 139.535 385.5 227.785 385.5 C 249.389 385.5 270.004 381.199 288.819 373.41 Z M 319.5 94.446 C 278.232 123.406 251.215 171.346 251.215 225.5 C 251.215 279.653 278.232 327.592 319.5 356.553 C 360.768 327.592 387.785 279.653 387.785 225.5 C 387.785 171.346 360.768 123.406 319.5 94.446 Z M 411.215 65.5 C 389.611 65.5 368.996 69.8 350.181 77.589 C 392.694 112.813 419.785 166.006 419.785 225.5 C 419.785 284.993 392.694 338.186 350.181 373.41 C 368.996 381.199 389.611 385.5 411.215 385.5 C 499.465 385.5 571.215 313.75 571.215 225.5 C 571.215 137.25 499.465 65.5 411.215 65.5 Z"/>
</svg>