<?xml version="1.0" encoding="utf-8"?>
<svg viewBox="0 0 639 451" xmlns="http://www.w3.org/2000/svg">
  <path d="M 255.199 254.594 L 200.389 254.594 L 188.079 288.734 L 170.299 288.734 L 220.249 157.924 L 235.339 157.924 L 285.389 288.734 L 267.689 288.734 L 255.199 254.594 M 205.599 240.394 L 250.079 240.394 L 227.799 179.214 L 205.599 240.394 Z"/>
  <path d="M 0 0 L 639 0 L 639 451 L 0 451 Z M 227.785 65.5 C 139.535 65.5 67.785 137.25 67.785 225.5 C 67.785 313.75 139.535 385.5 227.785 385.5 C 316.035 385.5 387.785 313.75 387.785 225.5 C 387.785 137.25 316.035 65.5 227.785 65.5 Z M 540.97 257.424 L 553.46 291.564 L 571.16 291.564 L 521.11 160.754 L 506.02 160.754 L 456.07 291.564 L 473.85 291.564 L 486.16 257.424 Z M 491.37 243.224 L 513.57 182.044 L 535.85 243.224 Z M 546.36 132.184 L 482.21 132.184 L 482.21 145.024 L 546.36 145.024 Z"/>
</svg>