<?xml version="1.0" encoding="utf-8"?>
<svg viewBox="0 0 639 451" xmlns="http://www.w3.org/2000/svg">
  <path d="M 127.276 253.125 L 114.966 287.265 L 97.186 287.265 L 147.136 156.455 L 162.226 156.455 L 212.276 287.265 L 194.576 287.265 L 182.086 253.125 Z M 132.486 238.925 L 176.966 238.925 L 154.686 177.745 Z M 319.5 56.797 C 292.245 41.942 260.997 33.5 227.785 33.5 C 121.785 33.5 35.785 119.5 35.785 225.5 C 35.785 331.5 121.785 417.5 227.785 417.5 C 260.997 417.5 292.245 409.058 319.5 394.203 C 346.755 409.058 378.003 417.5 411.215 417.5 C 517.215 417.5 603.215 331.5 603.215 225.5 C 603.215 119.5 517.215 33.5 411.215 33.5 C 378.003 33.5 346.755 41.942 319.5 56.797 Z M 411.215 385.5 C 389.611 385.5 368.996 381.2 350.181 373.411 C 392.694 338.187 419.785 284.994 419.785 225.5 C 419.785 166.006 392.694 112.813 350.181 77.589 C 368.996 69.8 389.611 65.5 411.215 65.5 C 499.465 65.5 571.215 137.25 571.215 225.5 C 571.215 313.75 499.465 385.5 411.215 385.5 Z M 319.5 94.446 C 360.768 123.407 387.785 171.347 387.785 225.5 C 387.785 279.653 360.768 327.593 319.5 356.554 C 278.232 327.593 251.215 279.653 251.215 225.5 C 251.215 171.347 278.232 123.407 319.5 94.446 Z"/>
  <path d="M 444.957 289.564 L 444.957 158.754 L 487.727 158.754 C 501.92 158.754 512.597 161.687 519.757 167.554 C 526.91 173.427 530.487 182.114 530.487 193.614 C 530.487 199.721 528.75 205.124 525.277 209.824 C 521.804 214.531 517.074 218.171 511.087 220.744 C 518.154 222.717 523.737 226.477 527.837 232.024 C 531.944 237.564 533.997 244.167 533.997 251.834 C 533.997 263.567 530.194 272.791 522.587 279.504 C 514.98 286.211 504.227 289.564 490.327 289.564 L 444.957 289.564 M 462.207 228.384 L 462.207 275.454 L 490.687 275.454 C 498.714 275.454 505.05 273.374 509.697 269.214 C 514.337 265.054 516.657 259.321 516.657 252.014 C 516.657 236.261 508.09 228.384 490.957 228.384 L 462.207 228.384 M 462.207 214.544 L 488.267 214.544 C 495.814 214.544 501.847 212.657 506.367 208.884 C 510.894 205.111 513.157 199.991 513.157 193.524 C 513.157 186.337 511.06 181.111 506.867 177.844 C 502.674 174.577 496.294 172.944 487.727 172.944 L 462.207 172.944 L 462.207 214.544 Z"/>
</svg>