<?xml version="1.0" encoding="utf-8"?>
<svg viewBox="0 0 639 451" xmlns="http://www.w3.org/2000/svg">
  <path d="M 603.215 225.5 C 603.215 331.5 517.215 417.5 411.215 417.5 C 378.003 417.5 346.755 409.058 319.5 394.203 C 292.245 409.058 260.997 417.5 227.785 417.5 C 121.785 417.5 35.785 331.5 35.785 225.5 C 35.785 119.5 121.785 33.5 227.785 33.5 C 260.997 33.5 292.245 41.942 319.5 56.797 C 346.755 41.942 378.003 33.5 411.215 33.5 C 517.215 33.5 603.215 119.5 603.215 225.5 Z M 288.819 373.411 C 246.306 338.187 219.215 284.994 219.215 225.5 C 219.215 166.006 246.306 112.813 288.819 77.589 C 270.004 69.8 249.389 65.5 227.785 65.5 C 139.535 65.5 67.785 137.25 67.785 225.5 C 67.785 313.75 139.535 385.5 227.785 385.5 C 249.389 385.5 270.004 381.2 288.819 373.411 Z M 319.5 94.446 C 278.232 123.407 251.215 171.347 251.215 225.5 C 251.215 279.653 278.232 327.593 319.5 356.554 C 360.768 327.593 387.785 279.653 387.785 225.5 C 387.785 171.347 360.768 123.407 319.5 94.446 Z"/>
</svg>