<?xml version="1.0" encoding="utf-8"?>
<svg viewBox="0 0 639 451" xmlns="http://www.w3.org/2000/svg">
  <path d="M 603.215 225.5 C 603.215 331.5 517.215 417.5 411.215 417.5 C 378.003 417.5 346.755 409.058 319.5 394.203 C 292.245 409.058 260.997 417.5 227.785 417.5 C 121.785 417.5 35.785 331.5 35.785 225.5 C 35.785 119.5 121.785 33.5 227.785 33.5 C 260.997 33.5 292.245 41.942 319.5 56.797 C 346.755 41.942 378.003 33.5 411.215 33.5 C 517.215 33.5 603.215 119.5 603.215 225.5 Z M 288.819 373.409 C 246.306 338.186 219.215 284.992 219.215 225.5 C 219.215 166.006 246.306 112.813 288.819 77.589 C 270.004 69.8 249.389 65.5 227.785 65.5 C 139.535 65.5 67.785 137.25 67.785 225.5 C 67.785 313.75 139.535 385.5 227.785 385.5 C 249.389 385.5 270.004 381.198 288.819 373.409 Z M 411.215 65.5 C 389.611 65.5 368.996 69.8 350.181 77.589 C 392.694 112.813 419.785 166.006 419.785 225.5 C 419.785 284.992 392.694 338.186 350.181 373.409 C 368.996 381.198 389.611 385.5 411.215 385.5 C 499.465 385.5 571.215 313.75 571.215 225.5 C 571.215 137.25 499.465 65.5 411.215 65.5 Z M 319.5 94.446 C 278.232 123.406 251.215 171.345 251.215 225.5 C 251.215 279.653 278.232 327.592 319.5 356.552 C 360.768 327.592 387.785 279.653 387.785 225.5 C 387.785 171.345 360.768 123.406 319.5 94.446 Z"/>
  <path d="M 182.086 253.124 L 127.276 253.124 L 114.966 287.263 L 97.186 287.263 L 147.136 156.454 L 162.226 156.454 L 212.276 287.263 L 194.576 287.263 L 182.086 253.124 M 132.486 238.924 L 176.966 238.924 L 154.686 177.744 L 132.486 238.924 Z"/>
  <path d="M 444.957 289.563 L 444.957 158.754 L 487.727 158.754 C 501.92 158.754 512.597 161.687 519.758 167.553 C 526.91 173.427 530.487 182.114 530.487 193.614 C 530.487 199.72 528.75 205.124 525.277 209.823 C 521.805 214.53 517.074 218.171 511.087 220.744 C 518.154 222.717 523.737 226.477 527.837 232.023 C 531.944 237.563 533.997 244.167 533.997 251.833 C 533.997 263.567 530.194 272.79 522.587 279.504 C 514.98 286.21 504.227 289.563 490.327 289.563 L 444.957 289.563 M 462.207 228.384 L 462.207 275.454 L 490.688 275.454 C 498.714 275.454 505.05 273.374 509.698 269.214 C 514.337 265.053 516.657 259.321 516.657 252.013 C 516.657 236.26 508.09 228.384 490.957 228.384 L 462.207 228.384 M 462.207 214.543 L 488.267 214.543 C 495.814 214.543 501.847 212.656 506.367 208.884 C 510.894 205.111 513.157 199.99 513.157 193.523 C 513.157 186.336 511.06 181.111 506.867 177.844 C 502.674 174.577 496.294 172.944 487.727 172.944 L 462.207 172.944 L 462.207 214.543 Z"/>
</svg>